<svg width="61" height="64" viewBox="0 0 61 64" fill="none" xmlns="http://www.w3.org/2000/svg">
<g clip-path="url(#clip0_1428_3714)">
<path d="M50.2546 32.0263L50.2648 32H22.0581L41.3497 50.2689C42.5477 51.6114 44.0576 52.6385 45.7463 53.2597C47.435 53.881 49.2506 54.0772 51.0331 53.831C52.8155 53.5849 54.51 52.9041 55.9672 51.8485C57.4243 50.7929 58.5993 49.3951 59.3886 47.7782C60.1778 46.1613 60.5571 44.3751 60.4929 42.5771C60.4287 40.7791 59.923 39.0245 59.0205 37.468C58.1179 35.9115 56.8462 34.601 55.3175 33.652C53.7888 32.703 52.0501 32.1447 50.2546 32.0263Z" fill="#4D1CFF"/>
<path d="M3.29134 46.8325L22.0582 64V32H9.05325C1.26426 32 -2.45552 41.5754 3.29134 46.8325Z" fill="#4D1CFF"/>
<path d="M49.5316 21.9345C52.3778 21.9348 55.1127 20.8287 57.1583 18.8499C59.2039 16.8711 60.4 14.1746 60.4939 11.3302C60.5878 8.48582 59.572 5.71635 57.6613 3.607C55.7506 1.49766 53.0947 0.213666 50.2546 0.0263466L50.2648 0H22.0581L41.3497 18.2689C42.3772 19.4231 43.6376 20.3465 45.0478 20.9783C46.4581 21.6101 47.9862 21.936 49.5316 21.9345Z" fill="#4D1CFF"/>
<path d="M9.05325 0C1.26426 0 -2.45552 9.5755 3.29134 14.8326L22.0582 32V3.13407e-06L9.05325 0Z" fill="#4D1CFF"/>
</g>
<defs>
<clipPath id="clip0_1428_3714">
<rect width="60" height="64" fill="white" transform="translate(0.5)"/>
</clipPath>
</defs>
</svg>
