<svg xmlns="http://www.w3.org/2000/svg" width="45" height="64" viewBox="0 0 45 64" fill="none">
  <path fill-rule="evenodd" clip-rule="evenodd" d="M6.60259 57.3466C4.5163 55.2443 2.86076 52.7472 1.73065 49.998C0.600539 47.2489 0.018023 44.3017 0.0164196 41.325H0C0.00307861 41.0544 0.0102643 40.7821 0.0215525 40.5081C0.0749981 39.4162 0.213621 38.3303 0.436136 37.2605C1.39769 32.1532 4.31416 27.4263 8.52877 23.0073C7.38353 31.3031 19.6549 30.2303 16.1196 21.7012C16.0426 21.5291 15.7307 20.79 15.6958 20.6915C13.9102 15.5085 15.7091 7.70191 22.4677 0C25.0475 11.0802 37.5621 20.4272 42.7034 31.7188C43.471 33.3059 44.9805 37.1931 44.9805 41.3094H45C45.0006 44.2886 44.4194 47.2387 43.2896 49.9906C42.1598 52.7425 40.5036 55.2422 38.4159 57.3466C29.6347 66.2178 15.3828 66.2178 6.60259 57.3466ZM35.3455 54.9158L36.421 53.5143C43.433 43.7226 41.2687 36.2021 36.7288 29.3295C32.2166 22.4993 25.0814 16.0766 22.5375 8.94479L22.4307 8.60168L21.9628 9.99383C20.5066 15.3883 21.4538 21.4057 27.0363 28.6308L27.0476 28.6463C29.3053 31.6888 28.1631 35.0442 25.8675 36.2726C23.4087 37.587 19.8344 36.6136 18.6553 32.7119L18.5445 32.2579L18.4573 32.4662C13.0902 46.7028 31.997 46.8739 35.3188 54.836L35.3455 54.9158Z" fill="url(#paint0_linear_872_1812)"/>
  <defs>
    <linearGradient id="paint0_linear_872_1812" x1="22.5" y1="0" x2="22.5" y2="64" gradientUnits="userSpaceOnUse">
      <stop stop-color="#D12929"/>
      <stop offset="1" stop-color="#FFDD55"/>
    </linearGradient>
  </defs>
</svg>